<mxfile host="app.diagrams.net" modified="2021-03-18T11:56:51.071Z" agent="5.0 (Windows)" etag="03CUErPWhj295vToMIDS" version="14.4.9" type="github">
  <diagram id="JPwHdw99KFIFH9jynpwa" name="Page-1">
    <mxGraphModel dx="1138" dy="588" grid="1" gridSize="10" guides="1" tooltips="1" connect="1" arrows="1" fold="1" page="1" pageScale="1" pageWidth="827" pageHeight="1169" math="0" shadow="0">
      <root>
        <mxCell id="0" />
        <mxCell id="1" parent="0" />
        <mxCell id="YHTE3Ox_aLQOzrF9MliQ-42" value="" style="rounded=0;whiteSpace=wrap;html=1;fillColor=none;" vertex="1" parent="1">
          <mxGeometry x="380" y="30" width="240" height="60" as="geometry" />
        </mxCell>
        <mxCell id="YHTE3Ox_aLQOzrF9MliQ-2" value="" style="ellipse;whiteSpace=wrap;html=1;aspect=fixed;" vertex="1" parent="1">
          <mxGeometry x="450" y="40" width="40" height="40" as="geometry" />
        </mxCell>
        <mxCell id="YHTE3Ox_aLQOzrF9MliQ-5" value="" style="ellipse;whiteSpace=wrap;html=1;aspect=fixed;" vertex="1" parent="1">
          <mxGeometry x="390" y="40" width="40" height="40" as="geometry" />
        </mxCell>
        <mxCell id="YHTE3Ox_aLQOzrF9MliQ-41" value="" style="ellipse;whiteSpace=wrap;html=1;aspect=fixed;" vertex="1" parent="1">
          <mxGeometry x="510" y="40" width="40" height="40" as="geometry" />
        </mxCell>
        <mxCell id="YHTE3Ox_aLQOzrF9MliQ-43" value="" style="ellipse;whiteSpace=wrap;html=1;aspect=fixed;" vertex="1" parent="1">
          <mxGeometry x="570" y="40" width="40" height="40" as="geometry" />
        </mxCell>
        <mxCell id="YHTE3Ox_aLQOzrF9MliQ-44" value="" style="rounded=0;whiteSpace=wrap;html=1;fillColor=none;" vertex="1" parent="1">
          <mxGeometry x="380" y="90" width="240" height="60" as="geometry" />
        </mxCell>
        <mxCell id="YHTE3Ox_aLQOzrF9MliQ-45" value="" style="ellipse;whiteSpace=wrap;html=1;aspect=fixed;" vertex="1" parent="1">
          <mxGeometry x="450" y="100" width="40" height="40" as="geometry" />
        </mxCell>
        <mxCell id="YHTE3Ox_aLQOzrF9MliQ-46" value="" style="ellipse;whiteSpace=wrap;html=1;aspect=fixed;" vertex="1" parent="1">
          <mxGeometry x="390" y="100" width="40" height="40" as="geometry" />
        </mxCell>
        <mxCell id="YHTE3Ox_aLQOzrF9MliQ-47" value="" style="ellipse;whiteSpace=wrap;html=1;aspect=fixed;" vertex="1" parent="1">
          <mxGeometry x="510" y="100" width="40" height="40" as="geometry" />
        </mxCell>
        <mxCell id="YHTE3Ox_aLQOzrF9MliQ-48" value="" style="ellipse;whiteSpace=wrap;html=1;aspect=fixed;" vertex="1" parent="1">
          <mxGeometry x="570" y="100" width="40" height="40" as="geometry" />
        </mxCell>
        <mxCell id="YHTE3Ox_aLQOzrF9MliQ-49" value="" style="rounded=0;whiteSpace=wrap;html=1;fillColor=none;" vertex="1" parent="1">
          <mxGeometry x="380" y="150" width="240" height="60" as="geometry" />
        </mxCell>
        <mxCell id="YHTE3Ox_aLQOzrF9MliQ-50" value="" style="ellipse;whiteSpace=wrap;html=1;aspect=fixed;" vertex="1" parent="1">
          <mxGeometry x="450" y="160" width="40" height="40" as="geometry" />
        </mxCell>
        <mxCell id="YHTE3Ox_aLQOzrF9MliQ-51" value="" style="ellipse;whiteSpace=wrap;html=1;aspect=fixed;" vertex="1" parent="1">
          <mxGeometry x="390" y="160" width="40" height="40" as="geometry" />
        </mxCell>
        <mxCell id="YHTE3Ox_aLQOzrF9MliQ-52" value="" style="ellipse;whiteSpace=wrap;html=1;aspect=fixed;" vertex="1" parent="1">
          <mxGeometry x="510" y="160" width="40" height="40" as="geometry" />
        </mxCell>
        <mxCell id="YHTE3Ox_aLQOzrF9MliQ-53" value="" style="ellipse;whiteSpace=wrap;html=1;aspect=fixed;" vertex="1" parent="1">
          <mxGeometry x="570" y="160" width="40" height="40" as="geometry" />
        </mxCell>
        <mxCell id="YHTE3Ox_aLQOzrF9MliQ-54" value="" style="rounded=0;whiteSpace=wrap;html=1;fillColor=none;" vertex="1" parent="1">
          <mxGeometry x="380" y="210" width="240" height="60" as="geometry" />
        </mxCell>
        <mxCell id="YHTE3Ox_aLQOzrF9MliQ-55" value="" style="ellipse;whiteSpace=wrap;html=1;aspect=fixed;" vertex="1" parent="1">
          <mxGeometry x="450" y="220" width="40" height="40" as="geometry" />
        </mxCell>
        <mxCell id="YHTE3Ox_aLQOzrF9MliQ-56" value="" style="ellipse;whiteSpace=wrap;html=1;aspect=fixed;" vertex="1" parent="1">
          <mxGeometry x="390" y="220" width="40" height="40" as="geometry" />
        </mxCell>
        <mxCell id="YHTE3Ox_aLQOzrF9MliQ-57" value="" style="ellipse;whiteSpace=wrap;html=1;aspect=fixed;" vertex="1" parent="1">
          <mxGeometry x="510" y="220" width="40" height="40" as="geometry" />
        </mxCell>
        <mxCell id="YHTE3Ox_aLQOzrF9MliQ-58" value="" style="ellipse;whiteSpace=wrap;html=1;aspect=fixed;" vertex="1" parent="1">
          <mxGeometry x="570" y="220" width="40" height="40" as="geometry" />
        </mxCell>
        <mxCell id="YHTE3Ox_aLQOzrF9MliQ-59" value="" style="rounded=0;whiteSpace=wrap;html=1;fillColor=none;" vertex="1" parent="1">
          <mxGeometry x="380" y="270" width="240" height="60" as="geometry" />
        </mxCell>
        <mxCell id="YHTE3Ox_aLQOzrF9MliQ-60" value="" style="ellipse;whiteSpace=wrap;html=1;aspect=fixed;" vertex="1" parent="1">
          <mxGeometry x="450" y="280" width="40" height="40" as="geometry" />
        </mxCell>
        <mxCell id="YHTE3Ox_aLQOzrF9MliQ-61" value="" style="ellipse;whiteSpace=wrap;html=1;aspect=fixed;" vertex="1" parent="1">
          <mxGeometry x="390" y="280" width="40" height="40" as="geometry" />
        </mxCell>
        <mxCell id="YHTE3Ox_aLQOzrF9MliQ-62" value="" style="ellipse;whiteSpace=wrap;html=1;aspect=fixed;" vertex="1" parent="1">
          <mxGeometry x="510" y="280" width="40" height="40" as="geometry" />
        </mxCell>
        <mxCell id="YHTE3Ox_aLQOzrF9MliQ-63" value="" style="ellipse;whiteSpace=wrap;html=1;aspect=fixed;" vertex="1" parent="1">
          <mxGeometry x="570" y="280" width="40" height="40" as="geometry" />
        </mxCell>
        <mxCell id="YHTE3Ox_aLQOzrF9MliQ-64" value="" style="rounded=0;whiteSpace=wrap;html=1;fillColor=none;" vertex="1" parent="1">
          <mxGeometry x="380" y="330" width="240" height="60" as="geometry" />
        </mxCell>
        <mxCell id="YHTE3Ox_aLQOzrF9MliQ-65" value="" style="ellipse;whiteSpace=wrap;html=1;aspect=fixed;" vertex="1" parent="1">
          <mxGeometry x="450" y="340" width="40" height="40" as="geometry" />
        </mxCell>
        <mxCell id="YHTE3Ox_aLQOzrF9MliQ-66" value="" style="ellipse;whiteSpace=wrap;html=1;aspect=fixed;" vertex="1" parent="1">
          <mxGeometry x="390" y="340" width="40" height="40" as="geometry" />
        </mxCell>
        <mxCell id="YHTE3Ox_aLQOzrF9MliQ-67" value="" style="ellipse;whiteSpace=wrap;html=1;aspect=fixed;" vertex="1" parent="1">
          <mxGeometry x="510" y="340" width="40" height="40" as="geometry" />
        </mxCell>
        <mxCell id="YHTE3Ox_aLQOzrF9MliQ-68" value="" style="ellipse;whiteSpace=wrap;html=1;aspect=fixed;" vertex="1" parent="1">
          <mxGeometry x="570" y="340" width="40" height="40" as="geometry" />
        </mxCell>
        <mxCell id="YHTE3Ox_aLQOzrF9MliQ-69" value="" style="rounded=0;whiteSpace=wrap;html=1;fillColor=none;" vertex="1" parent="1">
          <mxGeometry x="380" y="390" width="240" height="60" as="geometry" />
        </mxCell>
        <mxCell id="YHTE3Ox_aLQOzrF9MliQ-70" value="" style="ellipse;whiteSpace=wrap;html=1;aspect=fixed;" vertex="1" parent="1">
          <mxGeometry x="450" y="400" width="40" height="40" as="geometry" />
        </mxCell>
        <mxCell id="YHTE3Ox_aLQOzrF9MliQ-71" value="" style="ellipse;whiteSpace=wrap;html=1;aspect=fixed;" vertex="1" parent="1">
          <mxGeometry x="390" y="400" width="40" height="40" as="geometry" />
        </mxCell>
        <mxCell id="YHTE3Ox_aLQOzrF9MliQ-72" value="" style="ellipse;whiteSpace=wrap;html=1;aspect=fixed;" vertex="1" parent="1">
          <mxGeometry x="510" y="400" width="40" height="40" as="geometry" />
        </mxCell>
        <mxCell id="YHTE3Ox_aLQOzrF9MliQ-73" value="" style="ellipse;whiteSpace=wrap;html=1;aspect=fixed;" vertex="1" parent="1">
          <mxGeometry x="570" y="400" width="40" height="40" as="geometry" />
        </mxCell>
        <mxCell id="YHTE3Ox_aLQOzrF9MliQ-74" value="" style="rounded=0;whiteSpace=wrap;html=1;fillColor=none;" vertex="1" parent="1">
          <mxGeometry x="380" y="450" width="240" height="60" as="geometry" />
        </mxCell>
        <mxCell id="YHTE3Ox_aLQOzrF9MliQ-75" value="" style="ellipse;whiteSpace=wrap;html=1;aspect=fixed;" vertex="1" parent="1">
          <mxGeometry x="450" y="460" width="40" height="40" as="geometry" />
        </mxCell>
        <mxCell id="YHTE3Ox_aLQOzrF9MliQ-76" value="" style="ellipse;whiteSpace=wrap;html=1;aspect=fixed;" vertex="1" parent="1">
          <mxGeometry x="390" y="460" width="40" height="40" as="geometry" />
        </mxCell>
        <mxCell id="YHTE3Ox_aLQOzrF9MliQ-77" value="" style="ellipse;whiteSpace=wrap;html=1;aspect=fixed;" vertex="1" parent="1">
          <mxGeometry x="510" y="460" width="40" height="40" as="geometry" />
        </mxCell>
        <mxCell id="YHTE3Ox_aLQOzrF9MliQ-78" value="" style="ellipse;whiteSpace=wrap;html=1;aspect=fixed;" vertex="1" parent="1">
          <mxGeometry x="570" y="460" width="40" height="40" as="geometry" />
        </mxCell>
        <mxCell id="YHTE3Ox_aLQOzrF9MliQ-79" value="" style="rounded=0;whiteSpace=wrap;html=1;fillColor=none;" vertex="1" parent="1">
          <mxGeometry x="380" y="510" width="240" height="60" as="geometry" />
        </mxCell>
        <mxCell id="YHTE3Ox_aLQOzrF9MliQ-80" value="" style="ellipse;whiteSpace=wrap;html=1;aspect=fixed;" vertex="1" parent="1">
          <mxGeometry x="450" y="520" width="40" height="40" as="geometry" />
        </mxCell>
        <mxCell id="YHTE3Ox_aLQOzrF9MliQ-81" value="" style="ellipse;whiteSpace=wrap;html=1;aspect=fixed;" vertex="1" parent="1">
          <mxGeometry x="390" y="520" width="40" height="40" as="geometry" />
        </mxCell>
        <mxCell id="YHTE3Ox_aLQOzrF9MliQ-82" value="" style="ellipse;whiteSpace=wrap;html=1;aspect=fixed;" vertex="1" parent="1">
          <mxGeometry x="510" y="520" width="40" height="40" as="geometry" />
        </mxCell>
        <mxCell id="YHTE3Ox_aLQOzrF9MliQ-83" value="" style="ellipse;whiteSpace=wrap;html=1;aspect=fixed;" vertex="1" parent="1">
          <mxGeometry x="570" y="520" width="40" height="40" as="geometry" />
        </mxCell>
        <mxCell id="YHTE3Ox_aLQOzrF9MliQ-84" value="" style="rounded=0;whiteSpace=wrap;html=1;fillColor=none;" vertex="1" parent="1">
          <mxGeometry x="620" y="30" width="60" height="60" as="geometry" />
        </mxCell>
        <mxCell id="YHTE3Ox_aLQOzrF9MliQ-85" value="" style="ellipse;whiteSpace=wrap;html=1;aspect=fixed;" vertex="1" parent="1">
          <mxGeometry x="630" y="40" width="20" height="20" as="geometry" />
        </mxCell>
        <mxCell id="YHTE3Ox_aLQOzrF9MliQ-86" value="" style="ellipse;whiteSpace=wrap;html=1;aspect=fixed;" vertex="1" parent="1">
          <mxGeometry x="650" y="40" width="20" height="20" as="geometry" />
        </mxCell>
        <mxCell id="YHTE3Ox_aLQOzrF9MliQ-87" value="" style="ellipse;whiteSpace=wrap;html=1;aspect=fixed;" vertex="1" parent="1">
          <mxGeometry x="650" y="60" width="20" height="20" as="geometry" />
        </mxCell>
        <mxCell id="YHTE3Ox_aLQOzrF9MliQ-88" value="" style="ellipse;whiteSpace=wrap;html=1;aspect=fixed;" vertex="1" parent="1">
          <mxGeometry x="630" y="60" width="20" height="20" as="geometry" />
        </mxCell>
        <mxCell id="YHTE3Ox_aLQOzrF9MliQ-95" value="" style="rounded=0;whiteSpace=wrap;html=1;fillColor=none;" vertex="1" parent="1">
          <mxGeometry x="620" y="90" width="60" height="60" as="geometry" />
        </mxCell>
        <mxCell id="YHTE3Ox_aLQOzrF9MliQ-96" value="" style="ellipse;whiteSpace=wrap;html=1;aspect=fixed;" vertex="1" parent="1">
          <mxGeometry x="630" y="100" width="20" height="20" as="geometry" />
        </mxCell>
        <mxCell id="YHTE3Ox_aLQOzrF9MliQ-97" value="" style="ellipse;whiteSpace=wrap;html=1;aspect=fixed;" vertex="1" parent="1">
          <mxGeometry x="650" y="100" width="20" height="20" as="geometry" />
        </mxCell>
        <mxCell id="YHTE3Ox_aLQOzrF9MliQ-98" value="" style="ellipse;whiteSpace=wrap;html=1;aspect=fixed;" vertex="1" parent="1">
          <mxGeometry x="650" y="120" width="20" height="20" as="geometry" />
        </mxCell>
        <mxCell id="YHTE3Ox_aLQOzrF9MliQ-99" value="" style="ellipse;whiteSpace=wrap;html=1;aspect=fixed;" vertex="1" parent="1">
          <mxGeometry x="630" y="120" width="20" height="20" as="geometry" />
        </mxCell>
        <mxCell id="YHTE3Ox_aLQOzrF9MliQ-100" value="" style="rounded=0;whiteSpace=wrap;html=1;fillColor=none;" vertex="1" parent="1">
          <mxGeometry x="620" y="150" width="60" height="60" as="geometry" />
        </mxCell>
        <mxCell id="YHTE3Ox_aLQOzrF9MliQ-101" value="" style="ellipse;whiteSpace=wrap;html=1;aspect=fixed;" vertex="1" parent="1">
          <mxGeometry x="630" y="160" width="20" height="20" as="geometry" />
        </mxCell>
        <mxCell id="YHTE3Ox_aLQOzrF9MliQ-102" value="" style="ellipse;whiteSpace=wrap;html=1;aspect=fixed;" vertex="1" parent="1">
          <mxGeometry x="650" y="160" width="20" height="20" as="geometry" />
        </mxCell>
        <mxCell id="YHTE3Ox_aLQOzrF9MliQ-103" value="" style="ellipse;whiteSpace=wrap;html=1;aspect=fixed;" vertex="1" parent="1">
          <mxGeometry x="650" y="180" width="20" height="20" as="geometry" />
        </mxCell>
        <mxCell id="YHTE3Ox_aLQOzrF9MliQ-104" value="" style="ellipse;whiteSpace=wrap;html=1;aspect=fixed;" vertex="1" parent="1">
          <mxGeometry x="630" y="180" width="20" height="20" as="geometry" />
        </mxCell>
        <mxCell id="YHTE3Ox_aLQOzrF9MliQ-105" value="" style="rounded=0;whiteSpace=wrap;html=1;fillColor=none;" vertex="1" parent="1">
          <mxGeometry x="620" y="210" width="60" height="60" as="geometry" />
        </mxCell>
        <mxCell id="YHTE3Ox_aLQOzrF9MliQ-106" value="" style="ellipse;whiteSpace=wrap;html=1;aspect=fixed;" vertex="1" parent="1">
          <mxGeometry x="630" y="220" width="20" height="20" as="geometry" />
        </mxCell>
        <mxCell id="YHTE3Ox_aLQOzrF9MliQ-107" value="" style="ellipse;whiteSpace=wrap;html=1;aspect=fixed;" vertex="1" parent="1">
          <mxGeometry x="650" y="220" width="20" height="20" as="geometry" />
        </mxCell>
        <mxCell id="YHTE3Ox_aLQOzrF9MliQ-108" value="" style="ellipse;whiteSpace=wrap;html=1;aspect=fixed;" vertex="1" parent="1">
          <mxGeometry x="650" y="240" width="20" height="20" as="geometry" />
        </mxCell>
        <mxCell id="YHTE3Ox_aLQOzrF9MliQ-109" value="" style="ellipse;whiteSpace=wrap;html=1;aspect=fixed;" vertex="1" parent="1">
          <mxGeometry x="630" y="240" width="20" height="20" as="geometry" />
        </mxCell>
        <mxCell id="YHTE3Ox_aLQOzrF9MliQ-110" value="" style="rounded=0;whiteSpace=wrap;html=1;fillColor=none;" vertex="1" parent="1">
          <mxGeometry x="620" y="270" width="60" height="60" as="geometry" />
        </mxCell>
        <mxCell id="YHTE3Ox_aLQOzrF9MliQ-111" value="" style="ellipse;whiteSpace=wrap;html=1;aspect=fixed;" vertex="1" parent="1">
          <mxGeometry x="630" y="280" width="20" height="20" as="geometry" />
        </mxCell>
        <mxCell id="YHTE3Ox_aLQOzrF9MliQ-112" value="" style="ellipse;whiteSpace=wrap;html=1;aspect=fixed;" vertex="1" parent="1">
          <mxGeometry x="650" y="280" width="20" height="20" as="geometry" />
        </mxCell>
        <mxCell id="YHTE3Ox_aLQOzrF9MliQ-113" value="" style="ellipse;whiteSpace=wrap;html=1;aspect=fixed;" vertex="1" parent="1">
          <mxGeometry x="650" y="300" width="20" height="20" as="geometry" />
        </mxCell>
        <mxCell id="YHTE3Ox_aLQOzrF9MliQ-114" value="" style="ellipse;whiteSpace=wrap;html=1;aspect=fixed;" vertex="1" parent="1">
          <mxGeometry x="630" y="300" width="20" height="20" as="geometry" />
        </mxCell>
        <mxCell id="YHTE3Ox_aLQOzrF9MliQ-115" value="" style="rounded=0;whiteSpace=wrap;html=1;fillColor=none;" vertex="1" parent="1">
          <mxGeometry x="620" y="330" width="60" height="60" as="geometry" />
        </mxCell>
        <mxCell id="YHTE3Ox_aLQOzrF9MliQ-116" value="" style="ellipse;whiteSpace=wrap;html=1;aspect=fixed;" vertex="1" parent="1">
          <mxGeometry x="630" y="340" width="20" height="20" as="geometry" />
        </mxCell>
        <mxCell id="YHTE3Ox_aLQOzrF9MliQ-117" value="" style="ellipse;whiteSpace=wrap;html=1;aspect=fixed;" vertex="1" parent="1">
          <mxGeometry x="650" y="340" width="20" height="20" as="geometry" />
        </mxCell>
        <mxCell id="YHTE3Ox_aLQOzrF9MliQ-118" value="" style="ellipse;whiteSpace=wrap;html=1;aspect=fixed;" vertex="1" parent="1">
          <mxGeometry x="650" y="360" width="20" height="20" as="geometry" />
        </mxCell>
        <mxCell id="YHTE3Ox_aLQOzrF9MliQ-119" value="" style="ellipse;whiteSpace=wrap;html=1;aspect=fixed;" vertex="1" parent="1">
          <mxGeometry x="630" y="360" width="20" height="20" as="geometry" />
        </mxCell>
        <mxCell id="YHTE3Ox_aLQOzrF9MliQ-120" value="" style="rounded=0;whiteSpace=wrap;html=1;fillColor=none;" vertex="1" parent="1">
          <mxGeometry x="620" y="390" width="60" height="60" as="geometry" />
        </mxCell>
        <mxCell id="YHTE3Ox_aLQOzrF9MliQ-121" value="" style="ellipse;whiteSpace=wrap;html=1;aspect=fixed;" vertex="1" parent="1">
          <mxGeometry x="630" y="400" width="20" height="20" as="geometry" />
        </mxCell>
        <mxCell id="YHTE3Ox_aLQOzrF9MliQ-122" value="" style="ellipse;whiteSpace=wrap;html=1;aspect=fixed;" vertex="1" parent="1">
          <mxGeometry x="650" y="400" width="20" height="20" as="geometry" />
        </mxCell>
        <mxCell id="YHTE3Ox_aLQOzrF9MliQ-123" value="" style="ellipse;whiteSpace=wrap;html=1;aspect=fixed;" vertex="1" parent="1">
          <mxGeometry x="650" y="420" width="20" height="20" as="geometry" />
        </mxCell>
        <mxCell id="YHTE3Ox_aLQOzrF9MliQ-124" value="" style="ellipse;whiteSpace=wrap;html=1;aspect=fixed;" vertex="1" parent="1">
          <mxGeometry x="630" y="420" width="20" height="20" as="geometry" />
        </mxCell>
        <mxCell id="YHTE3Ox_aLQOzrF9MliQ-125" value="" style="rounded=0;whiteSpace=wrap;html=1;fillColor=none;" vertex="1" parent="1">
          <mxGeometry x="620" y="450" width="60" height="60" as="geometry" />
        </mxCell>
        <mxCell id="YHTE3Ox_aLQOzrF9MliQ-126" value="" style="ellipse;whiteSpace=wrap;html=1;aspect=fixed;" vertex="1" parent="1">
          <mxGeometry x="630" y="460" width="20" height="20" as="geometry" />
        </mxCell>
        <mxCell id="YHTE3Ox_aLQOzrF9MliQ-127" value="" style="ellipse;whiteSpace=wrap;html=1;aspect=fixed;" vertex="1" parent="1">
          <mxGeometry x="650" y="460" width="20" height="20" as="geometry" />
        </mxCell>
        <mxCell id="YHTE3Ox_aLQOzrF9MliQ-128" value="" style="ellipse;whiteSpace=wrap;html=1;aspect=fixed;" vertex="1" parent="1">
          <mxGeometry x="650" y="480" width="20" height="20" as="geometry" />
        </mxCell>
        <mxCell id="YHTE3Ox_aLQOzrF9MliQ-129" value="" style="ellipse;whiteSpace=wrap;html=1;aspect=fixed;" vertex="1" parent="1">
          <mxGeometry x="630" y="480" width="20" height="20" as="geometry" />
        </mxCell>
        <mxCell id="YHTE3Ox_aLQOzrF9MliQ-130" value="" style="rounded=0;whiteSpace=wrap;html=1;fillColor=none;" vertex="1" parent="1">
          <mxGeometry x="620" y="510" width="60" height="60" as="geometry" />
        </mxCell>
        <mxCell id="YHTE3Ox_aLQOzrF9MliQ-131" value="" style="ellipse;whiteSpace=wrap;html=1;aspect=fixed;" vertex="1" parent="1">
          <mxGeometry x="630" y="520" width="20" height="20" as="geometry" />
        </mxCell>
        <mxCell id="YHTE3Ox_aLQOzrF9MliQ-132" value="" style="ellipse;whiteSpace=wrap;html=1;aspect=fixed;" vertex="1" parent="1">
          <mxGeometry x="650" y="520" width="20" height="20" as="geometry" />
        </mxCell>
        <mxCell id="YHTE3Ox_aLQOzrF9MliQ-133" value="" style="ellipse;whiteSpace=wrap;html=1;aspect=fixed;" vertex="1" parent="1">
          <mxGeometry x="650" y="540" width="20" height="20" as="geometry" />
        </mxCell>
        <mxCell id="YHTE3Ox_aLQOzrF9MliQ-134" value="" style="ellipse;whiteSpace=wrap;html=1;aspect=fixed;" vertex="1" parent="1">
          <mxGeometry x="630" y="540" width="20" height="20" as="geometry" />
        </mxCell>
        <mxCell id="YHTE3Ox_aLQOzrF9MliQ-135" value="" style="rounded=0;whiteSpace=wrap;html=1;fillColor=none;" vertex="1" parent="1">
          <mxGeometry x="320" y="30" width="60" height="60" as="geometry" />
        </mxCell>
        <mxCell id="YHTE3Ox_aLQOzrF9MliQ-136" value="" style="ellipse;whiteSpace=wrap;html=1;aspect=fixed;" vertex="1" parent="1">
          <mxGeometry x="330" y="40" width="20" height="20" as="geometry" />
        </mxCell>
        <mxCell id="YHTE3Ox_aLQOzrF9MliQ-137" value="" style="ellipse;whiteSpace=wrap;html=1;aspect=fixed;" vertex="1" parent="1">
          <mxGeometry x="350" y="40" width="20" height="20" as="geometry" />
        </mxCell>
        <mxCell id="YHTE3Ox_aLQOzrF9MliQ-138" value="" style="ellipse;whiteSpace=wrap;html=1;aspect=fixed;" vertex="1" parent="1">
          <mxGeometry x="350" y="60" width="20" height="20" as="geometry" />
        </mxCell>
        <mxCell id="YHTE3Ox_aLQOzrF9MliQ-139" value="" style="ellipse;whiteSpace=wrap;html=1;aspect=fixed;" vertex="1" parent="1">
          <mxGeometry x="330" y="60" width="20" height="20" as="geometry" />
        </mxCell>
        <mxCell id="YHTE3Ox_aLQOzrF9MliQ-140" value="" style="rounded=0;whiteSpace=wrap;html=1;fillColor=none;" vertex="1" parent="1">
          <mxGeometry x="320" y="90" width="60" height="60" as="geometry" />
        </mxCell>
        <mxCell id="YHTE3Ox_aLQOzrF9MliQ-141" value="" style="ellipse;whiteSpace=wrap;html=1;aspect=fixed;" vertex="1" parent="1">
          <mxGeometry x="330" y="100" width="20" height="20" as="geometry" />
        </mxCell>
        <mxCell id="YHTE3Ox_aLQOzrF9MliQ-142" value="" style="ellipse;whiteSpace=wrap;html=1;aspect=fixed;" vertex="1" parent="1">
          <mxGeometry x="350" y="100" width="20" height="20" as="geometry" />
        </mxCell>
        <mxCell id="YHTE3Ox_aLQOzrF9MliQ-143" value="" style="ellipse;whiteSpace=wrap;html=1;aspect=fixed;" vertex="1" parent="1">
          <mxGeometry x="350" y="120" width="20" height="20" as="geometry" />
        </mxCell>
        <mxCell id="YHTE3Ox_aLQOzrF9MliQ-144" value="" style="ellipse;whiteSpace=wrap;html=1;aspect=fixed;" vertex="1" parent="1">
          <mxGeometry x="330" y="120" width="20" height="20" as="geometry" />
        </mxCell>
        <mxCell id="YHTE3Ox_aLQOzrF9MliQ-145" value="" style="rounded=0;whiteSpace=wrap;html=1;fillColor=none;" vertex="1" parent="1">
          <mxGeometry x="320" y="150" width="60" height="60" as="geometry" />
        </mxCell>
        <mxCell id="YHTE3Ox_aLQOzrF9MliQ-146" value="" style="ellipse;whiteSpace=wrap;html=1;aspect=fixed;" vertex="1" parent="1">
          <mxGeometry x="330" y="160" width="20" height="20" as="geometry" />
        </mxCell>
        <mxCell id="YHTE3Ox_aLQOzrF9MliQ-147" value="" style="ellipse;whiteSpace=wrap;html=1;aspect=fixed;" vertex="1" parent="1">
          <mxGeometry x="350" y="160" width="20" height="20" as="geometry" />
        </mxCell>
        <mxCell id="YHTE3Ox_aLQOzrF9MliQ-148" value="" style="ellipse;whiteSpace=wrap;html=1;aspect=fixed;" vertex="1" parent="1">
          <mxGeometry x="350" y="180" width="20" height="20" as="geometry" />
        </mxCell>
        <mxCell id="YHTE3Ox_aLQOzrF9MliQ-149" value="" style="ellipse;whiteSpace=wrap;html=1;aspect=fixed;" vertex="1" parent="1">
          <mxGeometry x="330" y="180" width="20" height="20" as="geometry" />
        </mxCell>
        <mxCell id="YHTE3Ox_aLQOzrF9MliQ-150" value="" style="rounded=0;whiteSpace=wrap;html=1;fillColor=none;" vertex="1" parent="1">
          <mxGeometry x="320" y="210" width="60" height="60" as="geometry" />
        </mxCell>
        <mxCell id="YHTE3Ox_aLQOzrF9MliQ-151" value="" style="ellipse;whiteSpace=wrap;html=1;aspect=fixed;" vertex="1" parent="1">
          <mxGeometry x="330" y="220" width="20" height="20" as="geometry" />
        </mxCell>
        <mxCell id="YHTE3Ox_aLQOzrF9MliQ-152" value="" style="ellipse;whiteSpace=wrap;html=1;aspect=fixed;" vertex="1" parent="1">
          <mxGeometry x="350" y="220" width="20" height="20" as="geometry" />
        </mxCell>
        <mxCell id="YHTE3Ox_aLQOzrF9MliQ-153" value="" style="ellipse;whiteSpace=wrap;html=1;aspect=fixed;" vertex="1" parent="1">
          <mxGeometry x="350" y="240" width="20" height="20" as="geometry" />
        </mxCell>
        <mxCell id="YHTE3Ox_aLQOzrF9MliQ-154" value="" style="ellipse;whiteSpace=wrap;html=1;aspect=fixed;" vertex="1" parent="1">
          <mxGeometry x="330" y="240" width="20" height="20" as="geometry" />
        </mxCell>
        <mxCell id="YHTE3Ox_aLQOzrF9MliQ-155" value="" style="rounded=0;whiteSpace=wrap;html=1;fillColor=none;" vertex="1" parent="1">
          <mxGeometry x="320" y="270" width="60" height="60" as="geometry" />
        </mxCell>
        <mxCell id="YHTE3Ox_aLQOzrF9MliQ-156" value="" style="ellipse;whiteSpace=wrap;html=1;aspect=fixed;" vertex="1" parent="1">
          <mxGeometry x="330" y="280" width="20" height="20" as="geometry" />
        </mxCell>
        <mxCell id="YHTE3Ox_aLQOzrF9MliQ-157" value="" style="ellipse;whiteSpace=wrap;html=1;aspect=fixed;" vertex="1" parent="1">
          <mxGeometry x="350" y="280" width="20" height="20" as="geometry" />
        </mxCell>
        <mxCell id="YHTE3Ox_aLQOzrF9MliQ-158" value="" style="ellipse;whiteSpace=wrap;html=1;aspect=fixed;" vertex="1" parent="1">
          <mxGeometry x="350" y="300" width="20" height="20" as="geometry" />
        </mxCell>
        <mxCell id="YHTE3Ox_aLQOzrF9MliQ-159" value="" style="ellipse;whiteSpace=wrap;html=1;aspect=fixed;" vertex="1" parent="1">
          <mxGeometry x="330" y="300" width="20" height="20" as="geometry" />
        </mxCell>
        <mxCell id="YHTE3Ox_aLQOzrF9MliQ-160" value="" style="rounded=0;whiteSpace=wrap;html=1;fillColor=none;" vertex="1" parent="1">
          <mxGeometry x="320" y="330" width="60" height="60" as="geometry" />
        </mxCell>
        <mxCell id="YHTE3Ox_aLQOzrF9MliQ-161" value="" style="ellipse;whiteSpace=wrap;html=1;aspect=fixed;" vertex="1" parent="1">
          <mxGeometry x="330" y="340" width="20" height="20" as="geometry" />
        </mxCell>
        <mxCell id="YHTE3Ox_aLQOzrF9MliQ-162" value="" style="ellipse;whiteSpace=wrap;html=1;aspect=fixed;" vertex="1" parent="1">
          <mxGeometry x="350" y="340" width="20" height="20" as="geometry" />
        </mxCell>
        <mxCell id="YHTE3Ox_aLQOzrF9MliQ-163" value="" style="ellipse;whiteSpace=wrap;html=1;aspect=fixed;" vertex="1" parent="1">
          <mxGeometry x="350" y="360" width="20" height="20" as="geometry" />
        </mxCell>
        <mxCell id="YHTE3Ox_aLQOzrF9MliQ-164" value="" style="ellipse;whiteSpace=wrap;html=1;aspect=fixed;" vertex="1" parent="1">
          <mxGeometry x="330" y="360" width="20" height="20" as="geometry" />
        </mxCell>
        <mxCell id="YHTE3Ox_aLQOzrF9MliQ-165" value="" style="rounded=0;whiteSpace=wrap;html=1;fillColor=none;" vertex="1" parent="1">
          <mxGeometry x="320" y="390" width="60" height="60" as="geometry" />
        </mxCell>
        <mxCell id="YHTE3Ox_aLQOzrF9MliQ-166" value="" style="ellipse;whiteSpace=wrap;html=1;aspect=fixed;" vertex="1" parent="1">
          <mxGeometry x="330" y="400" width="20" height="20" as="geometry" />
        </mxCell>
        <mxCell id="YHTE3Ox_aLQOzrF9MliQ-167" value="" style="ellipse;whiteSpace=wrap;html=1;aspect=fixed;" vertex="1" parent="1">
          <mxGeometry x="350" y="400" width="20" height="20" as="geometry" />
        </mxCell>
        <mxCell id="YHTE3Ox_aLQOzrF9MliQ-168" value="" style="ellipse;whiteSpace=wrap;html=1;aspect=fixed;" vertex="1" parent="1">
          <mxGeometry x="350" y="420" width="20" height="20" as="geometry" />
        </mxCell>
        <mxCell id="YHTE3Ox_aLQOzrF9MliQ-169" value="" style="ellipse;whiteSpace=wrap;html=1;aspect=fixed;" vertex="1" parent="1">
          <mxGeometry x="330" y="420" width="20" height="20" as="geometry" />
        </mxCell>
        <mxCell id="YHTE3Ox_aLQOzrF9MliQ-170" value="" style="rounded=0;whiteSpace=wrap;html=1;fillColor=none;" vertex="1" parent="1">
          <mxGeometry x="320" y="450" width="60" height="60" as="geometry" />
        </mxCell>
        <mxCell id="YHTE3Ox_aLQOzrF9MliQ-171" value="" style="ellipse;whiteSpace=wrap;html=1;aspect=fixed;" vertex="1" parent="1">
          <mxGeometry x="330" y="460" width="20" height="20" as="geometry" />
        </mxCell>
        <mxCell id="YHTE3Ox_aLQOzrF9MliQ-172" value="" style="ellipse;whiteSpace=wrap;html=1;aspect=fixed;" vertex="1" parent="1">
          <mxGeometry x="350" y="460" width="20" height="20" as="geometry" />
        </mxCell>
        <mxCell id="YHTE3Ox_aLQOzrF9MliQ-173" value="" style="ellipse;whiteSpace=wrap;html=1;aspect=fixed;" vertex="1" parent="1">
          <mxGeometry x="350" y="480" width="20" height="20" as="geometry" />
        </mxCell>
        <mxCell id="YHTE3Ox_aLQOzrF9MliQ-174" value="" style="ellipse;whiteSpace=wrap;html=1;aspect=fixed;" vertex="1" parent="1">
          <mxGeometry x="330" y="480" width="20" height="20" as="geometry" />
        </mxCell>
        <mxCell id="YHTE3Ox_aLQOzrF9MliQ-175" value="" style="rounded=0;whiteSpace=wrap;html=1;fillColor=none;" vertex="1" parent="1">
          <mxGeometry x="320" y="510" width="60" height="60" as="geometry" />
        </mxCell>
        <mxCell id="YHTE3Ox_aLQOzrF9MliQ-176" value="" style="ellipse;whiteSpace=wrap;html=1;aspect=fixed;" vertex="1" parent="1">
          <mxGeometry x="330" y="520" width="20" height="20" as="geometry" />
        </mxCell>
        <mxCell id="YHTE3Ox_aLQOzrF9MliQ-177" value="" style="ellipse;whiteSpace=wrap;html=1;aspect=fixed;" vertex="1" parent="1">
          <mxGeometry x="350" y="520" width="20" height="20" as="geometry" />
        </mxCell>
        <mxCell id="YHTE3Ox_aLQOzrF9MliQ-178" value="" style="ellipse;whiteSpace=wrap;html=1;aspect=fixed;" vertex="1" parent="1">
          <mxGeometry x="350" y="540" width="20" height="20" as="geometry" />
        </mxCell>
        <mxCell id="YHTE3Ox_aLQOzrF9MliQ-179" value="" style="ellipse;whiteSpace=wrap;html=1;aspect=fixed;" vertex="1" parent="1">
          <mxGeometry x="330" y="540" width="20" height="20" as="geometry" />
        </mxCell>
      </root>
    </mxGraphModel>
  </diagram>
</mxfile>
